# Blender v2.79 (sub 0) OBJ File: 'ColTipoC.blend'
# www.blender.org
mtllib ColTipoC.mtl
o ColTipoC_Cube
v -0.072814 3.150274 -0.120000
v -0.069480 3.150262 0.120000
v 0.096707 3.149682 0.120000
v 0.095446 3.149686 -0.120000
v -0.094803 -3.149688 -0.120000
v -0.091469 -3.149700 0.120000
v 0.074719 -3.150280 0.120000
v 0.073457 -3.150276 -0.120000
v -0.109005 3.150400 -0.083955
v 0.130994 3.149562 -0.083955
v -0.130994 -3.149562 -0.083954
v 0.109005 -3.150400 -0.083955
v -0.109005 3.150400 0.080509
v -0.130994 -3.149562 0.080509
v 0.130994 3.149562 0.080509
v 0.109005 -3.150400 0.080509
v 0.130994 3.149562 -0.044085
v 0.109005 -3.150400 -0.044085
v -0.109005 3.150400 -0.044085
v -0.130994 -3.149562 -0.044084
v -0.109005 3.150400 0.045322
v -0.130994 -3.149562 0.045322
v 0.130994 3.149562 0.045322
v 0.109005 -3.150400 0.045322
v 0.084090 3.149726 0.045322
v 0.084090 3.149726 -0.044085
v 0.062101 -3.150236 0.045322
v 0.062101 -3.150236 -0.044085
v -0.080041 -3.149740 -0.044084
v -0.058053 3.150222 -0.044085
v -0.058053 3.150222 0.045322
v -0.080041 -3.149740 0.045322
v 0.109005 -3.150400 0.045322
v 0.109005 -3.150400 -0.044085
v -0.130994 -3.149562 -0.044084
v -0.130994 -3.149562 0.045322
v 0.109005 -3.150400 0.045322
v 0.109005 -3.150400 -0.044085
v -0.130994 -3.149562 -0.044084
v -0.130994 -3.149562 0.045322
v 0.109005 -3.150400 0.045322
v 0.109005 -3.150400 -0.044085
v -0.130994 -3.149562 -0.044084
v -0.130994 -3.149562 0.045322
v 0.109005 -3.150400 0.045322
v 0.109005 -3.150400 -0.044085
v -0.130994 -3.149562 -0.044084
v -0.130994 -3.149562 0.045322
v 0.109005 -3.150400 0.045322
v 0.109005 -3.150400 -0.044085
v -0.130994 -3.149562 -0.044084
v -0.130994 -3.149562 0.045322
v 0.109005 -3.150400 0.045322
v 0.109005 -3.150400 -0.044085
v -0.130994 -3.149562 -0.044084
v -0.130994 -3.149562 0.045322
v 0.113762 -1.889350 0.045322
v 0.113762 -1.889350 -0.044085
v -0.126236 -1.888512 -0.044084
v -0.126236 -1.888512 0.045322
vn 0.0035 1.0000 -0.0000
vn -0.0035 -1.0000 0.0000
vn -0.7068 0.0025 0.7074
vn 0.0000 0.0000 1.0000
vn 0.7120 -0.0025 -0.7022
vn -0.0000 -0.0000 -1.0000
vn 1.0000 -0.0035 -0.0000
vn -0.7057 0.0025 -0.7085
vn 0.7551 -0.0026 0.6556
vn -1.0000 0.0035 0.0000
vn 1.0000 -0.0038 -0.0000
vn -1.0000 0.0038 0.0000
usemtl Material.003
s off
f 13//1 2//1 3//1 15//1
f 14//2 16//2 7//2 6//2
f 13//3 14//3 6//3 2//3
f 2//4 6//4 7//4 3//4
f 10//5 12//5 8//5 4//5
f 5//6 1//6 4//6 8//6
f 17//7 18//7 12//7 10//7
f 1//8 5//8 11//8 9//8
f 5//2 8//2 12//2 11//2
f 1//1 9//1 10//1 4//1
f 3//9 7//9 16//9 15//9
f 21//10 22//10 14//10 13//10
f 22//2 24//2 16//2 14//2
f 21//1 13//1 15//1 23//1
f 9//1 19//1 17//1 10//1
f 11//2 12//2 18//2 20//2
f 9//10 11//10 20//10 19//10
f 19//4 20//4 29//4 30//4
f 15//7 16//7 24//7 23//7
f 30//10 29//10 32//10 31//10
f 18//4 24//4 33//4 34//4
f 25//7 27//7 28//7 26//7
f 18//4 17//4 26//4 28//4
f 22//6 21//6 31//6 32//6
f 23//6 24//6 27//6 25//6
f 36//4 35//4 39//4 40//4
f 22//4 20//4 35//4 36//4
f 24//4 22//4 36//4 33//4
f 20//4 18//4 34//4 35//4
f 37//4 40//4 44//4 41//4
f 34//4 33//4 37//4 38//4
f 33//4 36//4 40//4 37//4
f 35//4 34//4 38//4 39//4
f 43//4 42//4 46//4 47//4
f 39//4 38//4 42//4 43//4
f 40//4 39//4 43//4 44//4
f 38//4 37//4 41//4 42//4
f 48//4 47//4 51//4 52//4
f 44//4 43//4 47//4 48//4
f 42//4 41//4 45//4 46//4
f 41//4 44//4 48//4 45//4
f 52//4 51//4 55//4 56//4
f 46//4 45//4 49//4 50//4
f 45//4 48//4 52//4 49//4
f 47//4 46//4 50//4 51//4
f 56//11 55//11 59//11 60//11
f 50//4 49//4 53//4 54//4
f 49//4 52//4 56//4 53//4
f 51//4 50//4 54//4 55//4
f 59//2 58//2 57//2 60//2
f 54//12 53//12 57//12 58//12
f 53//6 56//6 60//6 57//6
f 55//4 54//4 58//4 59//4
f 25//1 26//1 30//1 31//1
