# Blender v2.79 (sub 0) OBJ File: 'ColTipoA.blend'
# www.blender.org
mtllib ColTipoA.mtl
o Cube
v 0.101045 -3.150000 -0.101515
v 0.095999 -3.150000 0.107428
v -0.101428 -3.150000 0.102857
v -0.097289 -3.150000 -0.108151
v 0.101045 3.150000 -0.101515
v 0.095999 3.150000 0.107428
v -0.101428 3.150000 0.102857
v -0.097289 3.150000 -0.108151
v 0.120000 -3.150000 -0.081266
v -0.120000 -3.150000 -0.081266
v 0.120000 3.150000 -0.081266
v -0.120000 3.150000 -0.081266
v 0.120000 -3.150000 0.083437
v 0.120000 3.150000 0.083437
v -0.120000 -3.150000 0.083437
v -0.120000 3.150000 0.083437
v 0.082286 -3.150000 -0.120000
v 0.082286 -3.150000 0.120000
v 0.082286 3.150000 -0.120000
v 0.082286 3.150000 0.120000
v 0.082286 3.150000 -0.081266
v 0.082286 -3.150000 -0.081266
v 0.082286 3.150000 0.083437
v 0.082286 -3.150000 0.083437
v -0.085143 -3.150000 -0.120000
v -0.085143 -3.150000 0.120000
v -0.085143 3.150000 -0.120000
v -0.085143 3.150000 0.120000
v -0.085143 -3.150000 -0.081266
v -0.085143 -3.150000 0.083437
v -0.085143 3.150000 -0.081266
v -0.085143 3.150000 0.083437
vn 0.0000 -1.0000 0.0000
vn 0.0000 1.0000 -0.0000
vn -0.7238 -0.0000 0.6900
vn 0.6961 -0.0000 0.7180
vn -1.0000 -0.0000 -0.0000
vn -0.7433 -0.0000 -0.6689
vn 1.0000 0.0000 0.0000
vn 0.0000 0.0000 -1.0000
vn -0.0000 -0.0000 1.0000
vn 0.7165 -0.0000 -0.6976
usemtl Material.003
s off
f 30//1 26//1 3//1 15//1
f 32//2 16//2 7//2 28//2
f 26//3 28//3 7//3 16//3 15//3 3//3
f 13//4 14//4 6//4 20//4 18//4 2//4
f 15//5 16//5 12//5 10//5
f 10//6 12//6 8//6 27//6 25//6 4//6
f 27//2 8//2 12//2 31//2
f 25//1 29//1 10//1 4//1
f 9//7 11//7 14//7 13//7
f 31//2 12//2 16//2 32//2
f 29//1 30//1 15//1 10//1
f 9//1 13//1 24//1 22//1
f 11//2 21//2 23//2 14//2
f 1//1 9//1 22//1 17//1
f 5//2 19//2 21//2 11//2
f 14//2 23//2 20//2 6//2
f 13//1 2//1 18//1 24//1
f 22//1 24//1 30//1 29//1
f 21//2 31//2 32//2 23//2
f 17//1 22//1 29//1 25//1
f 19//2 27//2 31//2 21//2
f 19//8 17//8 25//8 27//8
f 18//9 20//9 28//9 26//9
f 23//2 32//2 28//2 20//2
f 24//1 18//1 26//1 30//1
f 5//10 11//10 9//10 1//10 17//10 19//10
