# Blender v2.79 (sub 0) OBJ File: 'serchaHowe7m.blend'
# www.blender.org
mtllib serchaHowe7m.mtl
o minicol.004_Cube.008
v 0.118555 -0.080000 -0.078829
v 0.084470 -0.080000 0.077498
v -3.180668 -0.079814 -1.138042
v -3.141410 -0.080182 -1.289589
v 0.118558 0.080000 -0.078828
v 0.084466 0.080000 0.077497
v -3.182323 0.080186 -1.138829
v -3.145377 0.079811 -1.294485
v -7.063776 0.083367 -1.710640
v -7.049763 0.076485 -1.551403
v -7.064493 -0.076485 -1.717486
v -7.050479 -0.083367 -1.558250
vn -0.0004 -1.0000 0.0011
vn 0.0004 1.0000 -0.0011
vn 0.9770 0.0000 0.2131
vn -0.3489 0.0005 0.9372
vn -0.9704 -0.0213 -0.2407
vn 0.3486 -0.0100 -0.9372
usemtl Material.001
s off
f 1//1 2//1 3//1 4//1
f 5//2 8//2 7//2 6//2
f 1//3 5//3 6//3 2//3
f 2//4 6//4 7//4 3//4
f 3//5 7//5 8//5 4//5
f 5//6 1//6 4//6 8//6
o minicol.003_Cube.007
v 0.051050 -0.080000 0.064742
v -0.023571 -0.080000 -0.076791
v 3.256960 -0.079814 -1.250151
v 3.324546 -0.080182 -1.108943
v 0.051047 0.080000 0.064744
v -0.023568 0.080000 -0.076793
v 3.258733 0.080186 -1.250615
v 3.330734 0.079811 -1.107753
v 6.596056 0.083367 -3.313361
v 6.482769 0.076485 -3.426138
v 6.601015 -0.076485 -3.308586
v 6.487727 -0.083367 -3.421362
vn -0.0004 -1.0000 -0.0011
vn 0.0004 1.0000 0.0011
vn -0.8846 0.0000 0.4664
vn -0.3368 0.0005 -0.9416
vn 0.8973 -0.0213 -0.4410
vn 0.3371 -0.0100 0.9414
usemtl Material.001
s off
f 13//7 14//7 15//7 16//7
f 17//8 20//8 19//8 18//8
f 13//9 17//9 18//9 14//9
f 14//10 18//10 19//10 15//10
f 15//11 19//11 20//11 16//11
f 17//12 13//12 16//12 20//12
o minicol.002_Cube.006
v -3.112173 -0.080000 0.024799
v -3.272125 -0.080000 0.028709
v -3.270901 -0.079814 -1.249706
v -3.114368 -0.080182 -1.247457
v -3.112173 0.080000 0.024803
v -3.272125 0.080000 0.028704
v -3.270529 0.080186 -1.251500
v -3.110552 0.079811 -1.252471
v -3.227839 0.083367 -7.339663
v -3.379226 0.076485 -7.288335
v -3.221357 -0.076485 -7.341981
v -3.372744 -0.083367 -7.290652
vn -0.0012 -1.0000 -0.0000
vn 0.0012 1.0000 0.0000
vn 0.0244 0.0000 0.9997
vn -1.0000 0.0012 -0.0011
vn 0.0040 -0.0213 -0.9998
vn 0.9999 -0.0119 -0.0002
usemtl Material.001
s off
f 25//13 26//13 27//13 28//13
f 29//14 32//14 31//14 30//14
f 25//15 29//15 30//15 26//15
f 26//16 30//16 31//16 27//16
f 27//17 31//17 32//17 28//17
f 29//18 25//18 28//18 32//18
o minicol.001_Cube.005
v 3.383891 -0.080000 0.024799
v 3.223939 -0.080000 0.028709
v 3.225162 -0.079814 -1.240904
v 3.381695 -0.080182 -1.238655
v 3.383891 0.080000 0.024803
v 3.223939 0.080000 0.028704
v 3.225535 0.080186 -1.242698
v 3.385512 0.079811 -1.243669
v 3.268225 0.083367 -7.339663
v 3.116838 0.076485 -7.288335
v 3.274707 -0.076485 -7.341981
v 3.123320 -0.083367 -7.290652
vn -0.0012 -1.0000 -0.0000
vn 0.0012 1.0000 0.0000
vn 0.0244 0.0000 0.9997
vn -1.0000 0.0012 -0.0011
vn 0.0040 -0.0213 -0.9998
vn 0.9999 -0.0119 -0.0002
usemtl Material.001
s off
f 37//19 38//19 39//19 40//19
f 41//20 44//20 43//20 42//20
f 37//21 41//21 42//21 38//21
f 38//22 42//22 43//22 39//22
f 39//23 43//23 44//23 40//23
f 41//24 37//24 40//24 44//24
o minicol_Cube.004
v 0.130578 -0.080000 0.024799
v -0.029374 -0.080000 0.028709
v -0.028151 -0.079814 -2.314779
v 0.128382 -0.080182 -2.312530
v 0.130578 0.080000 0.024803
v -0.029374 0.080000 0.028704
v -0.027778 0.080186 -2.316573
v 0.132199 0.079811 -2.317543
v 0.014912 0.083367 -7.339663
v -0.136476 0.076485 -7.288335
v 0.021394 -0.076485 -7.341981
v -0.129993 -0.083367 -7.290652
vn -0.0012 -1.0000 -0.0000
vn 0.0012 1.0000 0.0000
vn 0.0244 0.0000 0.9997
vn -1.0000 0.0012 -0.0006
vn 0.0040 -0.0213 -0.9998
vn 0.9999 -0.0119 -0.0001
usemtl Material.001
s off
f 49//25 50//25 51//25 52//25
f 53//26 56//26 55//26 54//26
f 49//27 53//27 54//27 50//27
f 50//28 54//28 55//28 51//28
f 51//29 55//29 56//29 52//29
f 53//30 49//30 52//30 56//30
o SIDE.001_Cube.003
v -6.999622 -0.080000 0.079931
v -7.053138 -0.080000 -0.070854
v 0.036386 -0.082332 -2.438120
v 0.033091 -0.076419 -2.278263
v -6.999626 0.080000 0.079932
v -7.053134 0.080000 -0.070855
v 0.030271 0.076419 -2.444383
v 0.031775 0.082332 -2.284526
v -0.111766 0.085389 -2.294697
v -0.112455 0.073175 -2.454229
v -0.094102 -0.073175 -2.282633
v -0.094791 -0.085389 -2.442164
vn 0.0061 -0.9998 0.0180
vn -0.0059 0.9998 -0.0180
vn -0.9424 0.0000 0.3344
vn -0.3171 -0.0247 -0.9481
vn 0.9997 0.0236 0.0047
vn 0.3183 0.0199 0.9478
usemtl Material.001
s off
f 61//31 62//31 63//31 64//31
f 65//32 68//32 67//32 66//32
f 61//33 65//33 66//33 62//33
f 62//34 66//34 67//34 63//34
f 63//35 67//35 68//35 64//35
f 65//36 61//36 64//36 68//36
o SIDE_Cube.001
v 7.050601 -0.080000 -0.072283
v 7.000470 -0.080000 0.079660
v 0.035286 -0.080000 -2.284528
v 0.037764 -0.080000 -2.441058
v 7.050605 0.080000 -0.072282
v 7.000466 0.080000 0.079659
v 0.033428 0.080000 -2.284528
v 0.032691 0.080000 -2.444507
v 0.076514 0.083367 -2.440992
v 0.073918 0.076485 -2.281161
v 0.076511 -0.076485 -2.447875
v 0.073917 -0.083367 -2.288045
vn 0.0000 -1.0000 -0.0000
vn 0.0000 1.0000 0.0000
vn 0.9496 0.0000 0.3133
vn -0.3214 -0.0019 0.9469
vn -0.9997 -0.0217 -0.0055
vn 0.3201 -0.0051 -0.9474
usemtl Material.001
s off
f 73//37 74//37 75//37 76//37
f 77//38 80//38 79//38 78//38
f 73//39 77//39 78//39 74//39
f 74//40 78//40 79//40 75//40
f 75//41 79//41 80//41 76//41
f 77//42 73//42 76//42 80//42
o base_Cube
v 7.000000 -0.080000 -0.080000
v 7.000000 -0.080000 0.080000
v -7.000001 -0.080000 0.080000
v -6.999998 -0.080000 -0.080000
v 7.000003 0.080000 -0.080000
v 6.999995 0.080000 0.080000
v -7.000002 0.080000 0.080000
v -7.000000 0.080000 -0.080000
vn 0.0000 -1.0000 0.0000
vn 0.0000 1.0000 0.0000
vn 1.0000 0.0000 0.0000
vn -0.0000 -0.0000 1.0000
vn -1.0000 -0.0000 -0.0000
vn 0.0000 0.0000 -1.0000
usemtl Material.001
s off
f 85//43 86//43 87//43 88//43
f 89//44 92//44 91//44 90//44
f 85//45 89//45 90//45 86//45
f 86//46 90//46 91//46 87//46
f 87//47 91//47 92//47 88//47
f 89//48 85//48 88//48 92//48
